<?xml version="1.0" encoding="UTF-8" standalone="no"?>
<!DOCTYPE svg PUBLIC "-//W3C//DTD SVG 1.1//EN"
 "http://www.w3.org/Graphics/SVG/1.1/DTD/svg11.dtd">
<!-- Generated by graphviz version 12.2.1 (0)
 -->
<!-- Title: g Pages: 1 -->
<svg width="482pt" height="777pt"
 viewBox="0.00 0.00 481.83 777.08" xmlns="http://www.w3.org/2000/svg" xmlns:xlink="http://www.w3.org/1999/xlink">
<g id="graph0" class="graph" transform="scale(1 1) rotate(0) translate(4 773.08)">
<title>g</title>
<polygon fill="white" stroke="none" points="-4,4 -4,-773.08 477.83,-773.08 477.83,4 -4,4"/>
<!-- 4 -->
<g id="node1" class="node">
<title>4</title>
<ellipse fill="none" stroke="black" cx="112.07" cy="-381.96" rx="27" ry="18"/>
<text text-anchor="middle" x="112.07" y="-376.54" font-family="Times,serif" font-size="14.00">C1</text>
</g>
<!-- 5 -->
<g id="node2" class="node">
<title>5</title>
<ellipse fill="none" stroke="black" cx="27" cy="-368.8" rx="27" ry="18"/>
<text text-anchor="middle" x="27" y="-363.37" font-family="Times,serif" font-size="14.00">H1</text>
</g>
<!-- 5&#45;&#45;4 -->
<g id="edge1" class="edge">
<title>5&#45;&#45;4</title>
<path fill="none" stroke="black" d="M53.45,-372.89C63.6,-374.46 75.17,-376.25 85.35,-377.83"/>
</g>
<!-- 6 -->
<g id="node3" class="node">
<title>6</title>
<ellipse fill="none" stroke="black" cx="141.94" cy="-304.78" rx="27" ry="18"/>
<text text-anchor="middle" x="141.94" y="-299.35" font-family="Times,serif" font-size="14.00">O5</text>
</g>
<!-- 6&#45;&#45;4 -->
<g id="edge2" class="edge">
<title>6&#45;&#45;4</title>
<path fill="none" stroke="black" d="M135.02,-322.68C130.19,-335.15 123.78,-351.71 118.96,-364.16"/>
</g>
<!-- 7 -->
<g id="node4" class="node">
<title>7</title>
<ellipse fill="none" stroke="black" cx="212.63" cy="-258.78" rx="27" ry="18"/>
<text text-anchor="middle" x="212.63" y="-253.35" font-family="Times,serif" font-size="14.00">C5</text>
</g>
<!-- 7&#45;&#45;6 -->
<g id="edge3" class="edge">
<title>7&#45;&#45;6</title>
<path fill="none" stroke="black" d="M192.94,-271.59C183.13,-277.97 171.32,-285.66 161.53,-292.03"/>
</g>
<!-- 8 -->
<g id="node5" class="node">
<title>8</title>
<ellipse fill="none" stroke="black" cx="272.08" cy="-210.51" rx="27" ry="18"/>
<text text-anchor="middle" x="272.08" y="-205.09" font-family="Times,serif" font-size="14.00">H5</text>
</g>
<!-- 8&#45;&#45;7 -->
<g id="edge4" class="edge">
<title>8&#45;&#45;7</title>
<path fill="none" stroke="black" d="M254.56,-224.73C246.75,-231.07 237.58,-238.52 229.81,-244.83"/>
</g>
<!-- 9 -->
<g id="node6" class="node">
<title>9</title>
<ellipse fill="none" stroke="black" cx="184.95" cy="-173" rx="27" ry="18"/>
<text text-anchor="middle" x="184.95" y="-167.58" font-family="Times,serif" font-size="14.00">C6</text>
</g>
<!-- 9&#45;&#45;7 -->
<g id="edge5" class="edge">
<title>9&#45;&#45;7</title>
<path fill="none" stroke="black" d="M190.69,-190.78C195.41,-205.4 202.06,-226.04 206.81,-240.73"/>
</g>
<!-- 10 -->
<g id="node7" class="node">
<title>10</title>
<ellipse fill="none" stroke="black" cx="104.36" cy="-151.72" rx="27" ry="18"/>
<text text-anchor="middle" x="104.36" y="-146.3" font-family="Times,serif" font-size="14.00">H62</text>
</g>
<!-- 10&#45;&#45;9 -->
<g id="edge6" class="edge">
<title>10&#45;&#45;9</title>
<path fill="none" stroke="black" d="M129.86,-158.45C139.36,-160.96 150.13,-163.81 159.62,-166.31"/>
</g>
<!-- 11 -->
<g id="node8" class="node">
<title>11</title>
<ellipse fill="none" stroke="black" cx="248.22" cy="-113.61" rx="27" ry="18"/>
<text text-anchor="middle" x="248.22" y="-108.18" font-family="Times,serif" font-size="14.00">H61</text>
</g>
<!-- 11&#45;&#45;9 -->
<g id="edge7" class="edge">
<title>11&#45;&#45;9</title>
<path fill="none" stroke="black" d="M232.25,-128.6C222.59,-137.67 210.32,-149.19 200.69,-158.23"/>
</g>
<!-- 12 -->
<g id="node9" class="node">
<title>12</title>
<ellipse fill="none" stroke="black" cx="165.92" cy="-94.2" rx="27" ry="18"/>
<text text-anchor="middle" x="165.92" y="-88.78" font-family="Times,serif" font-size="14.00">O6</text>
</g>
<!-- 12&#45;&#45;9 -->
<g id="edge8" class="edge">
<title>12&#45;&#45;9</title>
<path fill="none" stroke="black" d="M170.24,-112.08C173.33,-124.89 177.48,-142.07 180.59,-154.92"/>
</g>
<!-- 13 -->
<g id="node10" class="node">
<title>13</title>
<ellipse fill="none" stroke="black" cx="154.09" cy="-18" rx="28.61" ry="18"/>
<text text-anchor="middle" x="154.09" y="-12.57" font-family="Times,serif" font-size="14.00">H6O</text>
</g>
<!-- 13&#45;&#45;12 -->
<g id="edge9" class="edge">
<title>13&#45;&#45;12</title>
<path fill="none" stroke="black" d="M156.89,-36.06C158.77,-48.12 161.22,-63.92 163.1,-76.01"/>
</g>
<!-- 14 -->
<g id="node11" class="node">
<title>14</title>
<ellipse fill="none" stroke="black" cx="270.81" cy="-331.45" rx="27" ry="18"/>
<text text-anchor="middle" x="270.81" y="-326.02" font-family="Times,serif" font-size="14.00">C4</text>
</g>
<!-- 14&#45;&#45;7 -->
<g id="edge10" class="edge">
<title>14&#45;&#45;7</title>
<path fill="none" stroke="black" d="M257.9,-315.32C248.26,-303.28 235.14,-286.89 225.5,-274.86"/>
</g>
<!-- 15 -->
<g id="node12" class="node">
<title>15</title>
<ellipse fill="none" stroke="black" cx="326.74" cy="-288.61" rx="27" ry="18"/>
<text text-anchor="middle" x="326.74" y="-283.19" font-family="Times,serif" font-size="14.00">H4</text>
</g>
<!-- 15&#45;&#45;14 -->
<g id="edge11" class="edge">
<title>15&#45;&#45;14</title>
<path fill="none" stroke="black" d="M308.74,-302.4C302.35,-307.29 295.16,-312.79 288.78,-317.68"/>
</g>
<!-- 16 -->
<g id="node13" class="node">
<title>16</title>
<ellipse fill="none" stroke="black" cx="365.08" cy="-328.13" rx="27" ry="18"/>
<text text-anchor="middle" x="365.08" y="-322.7" font-family="Times,serif" font-size="14.00">O4</text>
</g>
<!-- 16&#45;&#45;14 -->
<g id="edge12" class="edge">
<title>16&#45;&#45;14</title>
<path fill="none" stroke="black" d="M337.81,-329.09C325.3,-329.53 310.51,-330.05 298.01,-330.49"/>
</g>
<!-- 17 -->
<g id="node14" class="node">
<title>17</title>
<ellipse fill="none" stroke="black" cx="445.22" cy="-308.78" rx="28.61" ry="18"/>
<text text-anchor="middle" x="445.22" y="-303.35" font-family="Times,serif" font-size="14.00">H4O</text>
</g>
<!-- 17&#45;&#45;16 -->
<g id="edge13" class="edge">
<title>17&#45;&#45;16</title>
<path fill="none" stroke="black" d="M418.09,-315.33C409.28,-317.45 399.53,-319.81 390.83,-321.91"/>
</g>
<!-- 18 -->
<g id="node15" class="node">
<title>18</title>
<ellipse fill="none" stroke="black" cx="245.37" cy="-420.13" rx="27" ry="18"/>
<text text-anchor="middle" x="245.37" y="-414.71" font-family="Times,serif" font-size="14.00">C3</text>
</g>
<!-- 18&#45;&#45;14 -->
<g id="edge14" class="edge">
<title>18&#45;&#45;14</title>
<path fill="none" stroke="black" d="M250.52,-402.19C254.93,-386.8 261.26,-364.75 265.67,-349.37"/>
</g>
<!-- 19 -->
<g id="node16" class="node">
<title>19</title>
<ellipse fill="none" stroke="black" cx="311.98" cy="-436.16" rx="27" ry="18"/>
<text text-anchor="middle" x="311.98" y="-430.73" font-family="Times,serif" font-size="14.00">H3</text>
</g>
<!-- 19&#45;&#45;18 -->
<g id="edge15" class="edge">
<title>19&#45;&#45;18</title>
<path fill="none" stroke="black" d="M286.42,-430.01C281.43,-428.81 276.19,-427.55 271.2,-426.35"/>
</g>
<!-- 20 -->
<g id="node17" class="node">
<title>20</title>
<ellipse fill="none" stroke="black" cx="307.16" cy="-486.58" rx="27" ry="18"/>
<text text-anchor="middle" x="307.16" y="-481.16" font-family="Times,serif" font-size="14.00">O3</text>
</g>
<!-- 20&#45;&#45;18 -->
<g id="edge16" class="edge">
<title>20&#45;&#45;18</title>
<path fill="none" stroke="black" d="M292.83,-471.17C282.85,-460.43 269.59,-446.18 259.63,-435.46"/>
</g>
<!-- 21 -->
<g id="node18" class="node">
<title>21</title>
<ellipse fill="none" stroke="black" cx="382.02" cy="-524.06" rx="28.61" ry="18"/>
<text text-anchor="middle" x="382.02" y="-518.63" font-family="Times,serif" font-size="14.00">H3O</text>
</g>
<!-- 21&#45;&#45;20 -->
<g id="edge17" class="edge">
<title>21&#45;&#45;20</title>
<path fill="none" stroke="black" d="M359.56,-512.81C349.91,-507.98 338.67,-502.36 329.09,-497.56"/>
</g>
<!-- 22 -->
<g id="node19" class="node">
<title>22</title>
<ellipse fill="none" stroke="black" cx="165.14" cy="-457.61" rx="27" ry="18"/>
<text text-anchor="middle" x="165.14" y="-452.18" font-family="Times,serif" font-size="14.00">C2</text>
</g>
<!-- 22&#45;&#45;4 -->
<g id="edge26" class="edge">
<title>22&#45;&#45;4</title>
<path fill="none" stroke="black" d="M153.62,-441.19C144.78,-428.59 132.63,-411.26 123.75,-398.61"/>
</g>
<!-- 22&#45;&#45;18 -->
<g id="edge18" class="edge">
<title>22&#45;&#45;18</title>
<path fill="none" stroke="black" d="M187.49,-447.17C198.52,-442.01 211.81,-435.81 222.87,-430.65"/>
</g>
<!-- 23 -->
<g id="node20" class="node">
<title>23</title>
<ellipse fill="none" stroke="black" cx="94.49" cy="-466.59" rx="27" ry="18"/>
<text text-anchor="middle" x="94.49" y="-461.16" font-family="Times,serif" font-size="14.00">H2</text>
</g>
<!-- 23&#45;&#45;22 -->
<g id="edge19" class="edge">
<title>23&#45;&#45;22</title>
<path fill="none" stroke="black" d="M121.2,-463.19C126.83,-462.48 132.76,-461.72 138.39,-461.01"/>
</g>
<!-- 24 -->
<g id="node21" class="node">
<title>24</title>
<ellipse fill="none" stroke="black" cx="136.69" cy="-543.47" rx="27" ry="18"/>
<text text-anchor="middle" x="136.69" y="-538.04" font-family="Times,serif" font-size="14.00">N2</text>
</g>
<!-- 24&#45;&#45;22 -->
<g id="edge20" class="edge">
<title>24&#45;&#45;22</title>
<path fill="none" stroke="black" d="M142.58,-525.68C147.46,-510.94 154.37,-490.1 159.25,-475.37"/>
</g>
<!-- 25 -->
<g id="node22" class="node">
<title>25</title>
<ellipse fill="none" stroke="black" cx="51.69" cy="-555.7" rx="28.61" ry="18"/>
<text text-anchor="middle" x="51.69" y="-550.27" font-family="Times,serif" font-size="14.00">H2N</text>
</g>
<!-- 25&#45;&#45;24 -->
<g id="edge21" class="edge">
<title>25&#45;&#45;24</title>
<path fill="none" stroke="black" d="M79.99,-551.62C89.65,-550.23 100.41,-548.68 109.95,-547.31"/>
</g>
<!-- 26 -->
<g id="node23" class="node">
<title>26</title>
<ellipse fill="none" stroke="black" cx="138.51" cy="-627.98" rx="28.61" ry="18"/>
<text text-anchor="middle" x="138.51" y="-622.56" font-family="Times,serif" font-size="14.00">C2N</text>
</g>
<!-- 26&#45;&#45;24 -->
<g id="edge22" class="edge">
<title>26&#45;&#45;24</title>
<path fill="none" stroke="black" d="M138.11,-609.64C137.81,-595.47 137.39,-575.94 137.08,-561.77"/>
</g>
<!-- 27 -->
<g id="node24" class="node">
<title>27</title>
<ellipse fill="none" stroke="black" cx="191.48" cy="-689.81" rx="29.11" ry="18"/>
<text text-anchor="middle" x="191.48" y="-684.39" font-family="Times,serif" font-size="14.00">O2N</text>
</g>
<!-- 27&#45;&#45;26 -->
<g id="edge23" class="edge">
<title>27&#45;&#45;26</title>
<path fill="none" stroke="black" d="M177.57,-673.57C169.72,-664.41 159.95,-653.01 152.15,-643.91"/>
</g>
<!-- 28 -->
<g id="node25" class="node">
<title>28</title>
<ellipse fill="none" stroke="black" cx="80.6" cy="-686.77" rx="30.61" ry="18"/>
<text text-anchor="middle" x="80.6" y="-681.35" font-family="Times,serif" font-size="14.00">CME</text>
</g>
<!-- 28&#45;&#45;26 -->
<g id="edge24" class="edge">
<title>28&#45;&#45;26</title>
<path fill="none" stroke="black" d="M96.12,-671.02C104.56,-662.45 114.96,-651.89 123.35,-643.37"/>
</g>
<!-- 29 -->
<g id="node26" class="node">
<title>29</title>
<ellipse fill="none" stroke="black" cx="40.15" cy="-751.08" rx="29.61" ry="18"/>
<text text-anchor="middle" x="40.15" y="-745.66" font-family="Times,serif" font-size="14.00">H3M</text>
</g>
<!-- 29&#45;&#45;28 -->
<g id="edge25" class="edge">
<title>29&#45;&#45;28</title>
<path fill="none" stroke="black" d="M50.99,-733.85C56.79,-724.62 63.92,-713.29 69.73,-704.05"/>
</g>
</g>
</svg>
